<svg xmlns="http://www.w3.org/2000/svg" width="800" height="800" fill="none" viewBox="0 0 24 24"><path fill="url(#a)" d="M13.633 5.358a6.984 6.984 0 0 0-9.874 0 6.984 6.984 0 0 0 0 9.875 6.984 6.984 0 0 0 9.874 0 6.973 6.973 0 0 0 0-9.875Z" opacity=".5"/><path fill="url(#b)" d="M8.696 15.278a4.983 4.983 0 1 0 0-9.965 4.983 4.983 0 0 0 0 9.965Z"/><path fill="url(#c)" d="M8.696 15.278a4.983 4.983 0 1 0 0-9.965 4.983 4.983 0 0 0 0 9.965Z"/><path fill="url(#d)" d="M9.536 16.815a3.731 3.731 0 1 0 0-7.462 3.731 3.731 0 0 0 0 7.462Z"/><path fill="url(#e)" d="M14.473 16.095a4.131 4.131 0 1 0 0-8.262 4.131 4.131 0 0 0 0 8.262Z"/><path fill="url(#f)" d="M12.713 19.552a3.457 3.457 0 1 0 0-6.914 3.457 3.457 0 0 0 0 6.914Z"/><path fill="url(#g)" d="M6.027 20.644H17.65v-5.023H6.69l-.663 5.023Z"/><path fill="url(#h)" d="M17.65 20.644a4.634 4.634 0 1 0 0-9.269 4.634 4.634 0 0 0 0 9.27Z"/><path fill="url(#i)" d="M18.941 20.46a4.636 4.636 0 0 1-2.582-8.902 4.636 4.636 0 0 1 2.582 8.903Z"/><path fill="url(#j)" d="M10.21 9.41a3.732 3.732 0 0 0-3.703 5.851l1.412-1.023c-.829-1.886-.395-4.337 2.291-4.828Z"/><path fill="url(#k)" d="M6.027 20.644a3.731 3.731 0 1 0 0-7.463 3.731 3.731 0 0 0 0 7.463Z"/><defs><radialGradient id="a" cx="0" cy="0" r="1" gradientTransform="translate(8.697 10.296) scale(6.9839)" gradientUnits="userSpaceOnUse"><stop offset=".682" stop-color="#FCCE38" stop-opacity="0"/><stop offset="1" stop-color="#FCCE38"/></radialGradient><radialGradient id="b" cx="0" cy="0" r="1" gradientTransform="translate(7.37 8.291) scale(6.82362)" gradientUnits="userSpaceOnUse"><stop stop-color="#FBE07A"/><stop offset="1" stop-color="#FF9D00"/></radialGradient><radialGradient id="c" cx="0" cy="0" r="1" gradientTransform="matrix(1.07658 1.89202 -3.55778 2.02443 7.28 7.92)" gradientUnits="userSpaceOnUse"><stop stop-color="#fff" stop-opacity=".5"/><stop offset="1" stop-color="#fff" stop-opacity="0"/></radialGradient><radialGradient id="d" cx="0" cy="0" r="1" gradientTransform="translate(10.13 14.381) scale(8.6494)" gradientUnits="userSpaceOnUse"><stop stop-color="#fff"/><stop offset=".345" stop-color="#FCFDFD"/><stop offset=".596" stop-color="#F3F6F7"/><stop offset=".815" stop-color="#E3EBEC"/><stop offset="1" stop-color="#CFDCDE"/></radialGradient><radialGradient id="e" cx="0" cy="0" r="1" gradientTransform="translate(11.971 13.264) scale(6.94231)" gradientUnits="userSpaceOnUse"><stop stop-color="#fff"/><stop offset=".345" stop-color="#FCFDFD"/><stop offset=".596" stop-color="#F3F6F7"/><stop offset=".815" stop-color="#E3EBEC"/><stop offset="1" stop-color="#CFDCDE"/></radialGradient><radialGradient id="f" cx="0" cy="0" r="1" gradientTransform="translate(12.178 16.368) scale(4.65688)" gradientUnits="userSpaceOnUse"><stop stop-color="#fff"/><stop offset=".345" stop-color="#FCFDFD"/><stop offset=".596" stop-color="#F3F6F7"/><stop offset=".815" stop-color="#E3EBEC"/><stop offset="1" stop-color="#CFDCDE"/></radialGradient><radialGradient id="h" cx="0" cy="0" r="1" gradientTransform="translate(16.193 12.022) scale(9.16822)" gradientUnits="userSpaceOnUse"><stop stop-color="#fff"/><stop offset=".345" stop-color="#FCFDFD"/><stop offset=".595" stop-color="#F3F6F7"/><stop offset=".814" stop-color="#E3EBEC"/><stop offset=".999" stop-color="#CFDCDE"/></radialGradient><radialGradient id="i" cx="0" cy="0" r="1" gradientTransform="matrix(2.38318 8.20947 -8.20869 2.38295 14.077 12.86)" gradientUnits="userSpaceOnUse"><stop stop-color="#fff"/><stop offset=".345" stop-color="#FCFDFD"/><stop offset=".596" stop-color="#F3F6F7"/><stop offset=".815" stop-color="#E3EBEC"/><stop offset="1" stop-color="#CFDCDE"/></radialGradient><radialGradient id="j" cx="0" cy="0" r="1" gradientTransform="rotate(119.175 1.25 7.032) scale(9.26054)" gradientUnits="userSpaceOnUse"><stop stop-color="#CFDCDE" stop-opacity="0"/><stop offset=".887" stop-color="#CFDCDE" stop-opacity=".887"/><stop offset="1" stop-color="#CFDCDE"/></radialGradient><radialGradient id="k" cx="0" cy="0" r="1" gradientTransform="translate(8.495 13.657) scale(7.20081)" gradientUnits="userSpaceOnUse"><stop stop-color="#fff"/><stop offset=".345" stop-color="#FCFDFD"/><stop offset=".596" stop-color="#F3F6F7"/><stop offset=".815" stop-color="#E3EBEC"/><stop offset="1" stop-color="#CFDCDE"/></radialGradient><linearGradient id="g" x1="11.838" x2="11.838" y1="14.008" y2="20.843" gradientUnits="userSpaceOnUse"><stop stop-color="#fff"/><stop offset=".345" stop-color="#FCFDFD"/><stop offset=".596" stop-color="#F3F6F7"/><stop offset=".815" stop-color="#E3EBEC"/><stop offset="1" stop-color="#CFDCDE"/></linearGradient></defs></svg>